<svg width="20" height="20" viewBox="0 0 20 20" fill="none" xmlns="http://www.w3.org/2000/svg">
<g clip-path="url(#clip0_1327_13481)">
<path d="M12.8 3H15.88C16.4986 3 17 3.50144 17 4.12V7.2M17 12.8V15.88C17 16.4986 16.4986 17 15.88 17H12.8M7.2 17H4.12C3.50144 17 3 16.4986 3 15.88V12.8M3 7.16941V4.12C3 3.50144 3.50144 3 4.12 3H7.2" stroke="#1D2129" stroke-linecap="round" stroke-linejoin="round"/>
<path fill-rule="evenodd" clip-rule="evenodd" d="M13.6016 7.74337C13.1781 7.27117 12.5802 7 11.9602 7C11.4368 7 10.4029 7.99523 10.0007 8.34596C9.59772 7.99609 8.56466 7 8.04126 7C7.42121 7 6.82328 7.27117 6.40064 7.74337C5.57418 8.65868 6.1461 10.1557 7.03235 11.0813L9.70502 13.8717C9.78365 13.9538 9.88931 14 10.0007 14H10.0015C10.1137 14 10.2186 13.9547 10.2972 13.8717L12.9691 11.0813C13.8529 10.1531 14.4248 8.65612 13.6016 7.74337Z" stroke="#07C160" stroke-linecap="round" stroke-linejoin="round"/>
</g>
<defs>
<clipPath id="clip0_1327_13481">
<rect width="20" height="20" fill="white"/>
</clipPath>
</defs>
</svg>
