<svg width="20" height="20" viewBox="0 0 20 20" fill="none" xmlns="http://www.w3.org/2000/svg">
<g clip-path="url(#clip0_1327_13482)">
<rect x="3.5" y="2.5" width="13" height="15" rx="1.16667" stroke="#1D2129" stroke-linejoin="round"/>
<rect x="7.25" y="14.25" width="5.5" height="0.5" rx="0.25" fill="#1D2129" stroke="#1D2129" stroke-width="0.5" stroke-linejoin="round"/>
<path d="M3.75 5C5.41667 6.25 7.08333 7.08333 10 7.08333C12.9167 7.08333 14.8611 5.83333 16.25 5" stroke="black"/>
<mask id="path-4-inside-1_1327_13482" fill="white">
<path d="M10 10.0002C9.72386 10.0002 9.5 9.77631 9.5 9.50016L9.5 5.50016C9.5 5.22402 9.72386 5.00016 10 5.00016C10.2761 5.00016 10.5 5.22402 10.5 5.50016L10.5 9.50016C10.5 9.77631 10.2761 10.0002 10 10.0002Z"/>
</mask>
<path d="M10 10.0002C9.72386 10.0002 9.5 9.77631 9.5 9.50016L9.5 5.50016C9.5 5.22402 9.72386 5.00016 10 5.00016C10.2761 5.00016 10.5 5.22402 10.5 5.50016L10.5 9.50016C10.5 9.77631 10.2761 10.0002 10 10.0002Z" fill="#07C160"/>
<path d="M9.5 9.50016L10.5 9.50016L10.5 5.50016L9.5 5.50016L8.5 5.50016L8.5 9.50016L9.5 9.50016ZM10.5 5.50016L9.5 5.50016L9.5 9.50016L10.5 9.50016L11.5 9.50016L11.5 5.50016L10.5 5.50016ZM10.5 9.50016L9.5 9.50016C9.5 9.22402 9.72386 9.00016 10 9.00016L10 10.0002L10 11.0002C10.8284 11.0002 11.5 10.3286 11.5 9.50016L10.5 9.50016ZM10 5.00016L10 6.00016C9.72386 6.00016 9.5 5.77631 9.5 5.50016L10.5 5.50016L11.5 5.50016C11.5 4.67174 10.8284 4.00016 10 4.00016L10 5.00016ZM9.5 5.50016L10.5 5.50016C10.5 5.77631 10.2761 6.00016 10 6.00016L10 5.00016L10 4.00016C9.17157 4.00016 8.5 4.67174 8.5 5.50016L9.5 5.50016ZM9.5 9.50016L8.5 9.50016C8.5 10.3286 9.17157 11.0002 10 11.0002L10 10.0002L10 9.00016C10.2761 9.00016 10.5 9.22402 10.5 9.50016L9.5 9.50016Z" fill="#07C160" mask="url(#path-4-inside-1_1327_13482)"/>
<circle cx="9.99996" cy="9.88916" r="0.5" fill="#07C160" stroke="#07C160" stroke-width="0.666667"/>
<circle cx="9.99996" cy="5" r="0.5" fill="#07C160" stroke="#07C160" stroke-width="0.666667"/>
</g>
<defs>
<clipPath id="clip0_1327_13482">
<rect width="20" height="20" fill="white"/>
</clipPath>
</defs>
</svg>
