<svg width="20" height="20" viewBox="0 0 20 20" fill="none" xmlns="http://www.w3.org/2000/svg">
<g clip-path="url(#clip0_1327_13480)">
<path d="M10 9.5C10.1326 9.5 10.2597 9.55272 10.3535 9.64648C10.4473 9.74025 10.5 9.86739 10.5 10C10.5 10.1326 10.4473 10.2597 10.3535 10.3535C10.2597 10.4473 10.1326 10.5 10 10.5C9.86739 10.5 9.74025 10.4473 9.64648 10.3535C9.55272 10.2597 9.5 10.1326 9.5 10C9.5 9.86739 9.55272 9.74025 9.64648 9.64648C9.74025 9.55272 9.86739 9.5 10 9.5Z" fill="#07C160" stroke="#07C160"/>
<path d="M14.8959 9.39502C15.2502 8.95559 15.8886 8.87568 16.3402 9.21436C16.604 9.41219 16.7591 9.72254 16.7592 10.0522V15.9995C16.7592 16.8279 16.0876 17.4995 15.2592 17.4995H4.7406C3.91217 17.4995 3.2406 16.8279 3.2406 15.9995V10.0522C3.2407 9.72261 3.39588 9.4122 3.65955 9.21436C4.11108 8.87571 4.74958 8.95568 5.10388 9.39502L8.57263 13.6968C9.30646 14.607 10.6933 14.607 11.4271 13.6968L14.8959 9.39502Z" stroke="#1D2129"/>
<path d="M5.85181 4.33312C5.85181 3.59674 6.44876 2.99978 7.18514 2.99978H7.45822C7.76098 2.99978 8.05472 3.10282 8.29114 3.29196L10 4.65908L11.7089 3.29196C11.9454 3.10282 12.2391 2.99978 12.5419 2.99978H12.8149C13.5513 2.99978 14.1483 3.59674 14.1483 4.33312V5.81468C14.1483 6.55106 13.5513 7.14802 12.8149 7.14802H12.5419C12.2391 7.14802 11.9454 7.04498 11.7089 6.85584L10 5.48872L8.29114 6.85584C8.05472 7.04498 7.76098 7.14802 7.45822 7.14802H7.18514C6.44876 7.14802 5.85181 6.55106 5.85181 5.81468V4.33312Z" stroke="#1D2129"/>
</g>
<defs>
<clipPath id="clip0_1327_13480">
<rect width="20" height="20" fill="white"/>
</clipPath>
</defs>
</svg>
