<svg width="20" height="20" viewBox="0 0 20 20" fill="none" xmlns="http://www.w3.org/2000/svg">
<g clip-path="url(#clip0_1327_13479)">
<path d="M12.4066 10.6213L7.5936 10.6213" stroke="#07C160" stroke-linecap="round"/>
<rect x="2.5" y="7.49968" width="15" height="9" rx="1.5" stroke="black"/>
<path d="M10.947 3.40883C11.7326 2.76842 12.8917 2.8144 13.6238 3.54652L15.3328 5.25551L15.4705 5.40785C16.0197 6.08168 16.0629 7.02954 15.6023 7.74769H14.9968L14.6257 7.3766C15.0158 6.98614 15.0158 6.35296 14.6257 5.96254L12.9167 4.25355C12.5263 3.86314 11.8923 3.86336 11.5017 4.25355L8.00757 7.74769H6.59351L10.7947 3.54652L10.947 3.40883ZM14.9968 7.74769H14.2546L14.6257 7.3766L14.9968 7.74769Z" fill="black"/>
<path d="M7.79126 3.59943C8.92366 3.59943 9.94577 4.06934 10.675 4.82404L9.96704 5.53205C9.41884 4.95824 8.64752 4.59943 7.79126 4.59943C6.14579 4.59949 4.80918 5.91953 4.78149 7.55841L3.94165 7.57404C3.8874 7.57504 3.83362 7.57956 3.78052 7.58478C3.79423 5.38142 5.58468 3.59949 7.79126 3.59943Z" fill="black"/>
</g>
<defs>
<clipPath id="clip0_1327_13479">
<rect width="20" height="20" fill="white"/>
</clipPath>
</defs>
</svg>
